<svg version="1.0" xmlns="http://www.w3.org/2000/svg"
 width="300.000000pt" height="300.000000pt" viewBox="0 0 300.000000 300.000000"
 preserveAspectRatio="xMidYMid meet">

<g transform="translate(0.000000,300.000000) scale(0.100000,-0.100000)"
fill="#000000" stroke="none">
<path d="M615 2363 c-22 -5 -82 -48 -103 -73 -55 -64 -66 -164 -28 -246 39
-84 127 -134 238 -134 26 0 48 -2 48 -4 0 -2 -11 -33 -24 -68 -73 -193 -73
-387 -2 -584 14 -39 26 -74 26 -77 0 -2 -29 -7 -65 -9 -76 -5 -131 -37 -180
-107 -27 -38 -30 -51 -30 -115 0 -63 4 -79 30 -121 19 -31 49 -61 79 -80 l49
-30 851 -3 c600 -2 866 1 904 9 113 23 197 152 172 264 -26 115 -117 185 -243
185 -75 0 -76 2 -42 70 7 14 23 65 35 115 19 77 22 108 18 220 -4 111 -9 142
-35 215 -16 47 -33 93 -37 103 -7 14 -3 17 26 17 19 0 58 7 86 15 184 55 222
292 66 405 l-48 35 -886 1 c-487 1 -894 0 -905 -3z m157 -75 c133 -75 104
-268 -47 -309 -66 -19 -156 25 -190 92 -19 36 -19 112 -1 147 45 86 152 118
238 70z m930 3 c288 -74 495 -280 568 -565 39 -154 21 -355 -47 -502 l-24 -54
-226 0 -226 0 61 56 c46 41 71 75 99 132 37 74 38 79 38 187 0 105 -2 113 -34
180 -44 89 -116 161 -206 206 l-70 34 -392 3 c-223 2 -393 7 -393 12 0 5 5 12
10 15 6 4 20 25 32 48 39 76 26 186 -30 250 -14 16 4 17 375 17 352 0 397 -2
465 -19z m715 -7 c49 -36 73 -82 73 -138 0 -107 -76 -174 -200 -175 -55 0 -55
0 -87 47 -37 55 -139 158 -198 201 -22 16 -67 43 -100 60 l-60 31 272 -2 c258
-3 273 -4 300 -24z m-1186 -430 c-165 -152 -185 -396 -48 -573 48 -63 111
-109 195 -143 55 -22 67 -23 434 -26 211 -2 378 -7 378 -12 0 -5 -5 -12 -11
-16 -22 -13 -49 -90 -49 -142 0 -59 20 -115 53 -150 l22 -24 -410 5 c-437 5
-437 5 -571 59 -181 74 -337 231 -412 415 -49 118 -57 160 -57 293 1 135 15
206 62 313 l26 57 224 0 224 0 -60 -56z m442 28 c65 -29 148 -110 183 -179 26
-53 29 -67 29 -158 0 -89 -3 -107 -28 -160 -69 -147 -245 -238 -399 -206 -83
17 -143 50 -200 108 -95 98 -129 232 -89 359 36 116 105 193 218 240 50 21 70
24 148 21 65 -2 103 -9 138 -25z m-823 -828 c77 -102 188 -197 295 -252 l60
-31 -250 0 c-140 -1 -266 4 -287 9 -74 21 -129 113 -114 193 17 89 81 136 187
137 l67 0 42 -56z m1573 42 c74 -30 118 -119 97 -196 -40 -148 -250 -170 -315
-34 -68 144 72 291 218 230z"/>
</g>
</svg>