<svg id="Layer_1" data-name="Layer 1" xmlns="http://www.w3.org/2000/svg" viewBox="0 0 50 50"><defs><style>.cls-1{fill:#fff;}</style></defs><title>instagram</title><path class="cls-1" d="M38.3,7.17A5.15,5.15,0,0,1,42.21,8.8a5.18,5.18,0,0,1,1.63,3.91v6.11h-9a10.47,10.47,0,0,0-8.88-4.57A10.2,10.2,0,0,0,17,18.82H8V12.71A5.14,5.14,0,0,1,9.63,8.8a5.14,5.14,0,0,1,3.91-1.63ZM36.75,25.09A10.28,10.28,0,0,0,36.51,23h7.33V37.38a5.43,5.43,0,0,1-1.63,4A5.33,5.33,0,0,1,38.3,43H13.54a5.33,5.33,0,0,1-3.91-1.63,5.39,5.39,0,0,1-1.63-4V23h7.25c-.11,1.19-.16,1.9-.16,2.12a10.58,10.58,0,0,0,3.17,7.65,10.44,10.44,0,0,0,7.66,3.18A10.86,10.86,0,0,0,36.75,25.09Zm-6.11,4.72a6.7,6.7,0,0,1-9.45,0,6.44,6.44,0,0,1-2-4.72,6.12,6.12,0,0,1,2-4.73,6.7,6.7,0,0,1,9.45,0,6.13,6.13,0,0,1,2,4.73A6.45,6.45,0,0,1,30.64,29.81ZM40.9,14.09v-3a.86.86,0,0,0-1-1h-3a.86.86,0,0,0-1,1v3a1.41,1.41,0,0,0,.24.65,1,1,0,0,0,.73.33h3A.86.86,0,0,0,40.9,14.09Z"/></svg>