<svg id="Layer_1" data-name="Layer 1" xmlns="http://www.w3.org/2000/svg" viewBox="0 0 50 50"><defs><style>.cls-1{fill:#fff;}</style></defs><title>twitter</title><path class="cls-1" d="M38.78,17.81v.87a20.36,20.36,0,0,1-5.41,13.77Q28,38.58,18.86,38.59A19.49,19.49,0,0,1,8.13,35.48a12.42,12.42,0,0,0,1.64.08,13.91,13.91,0,0,0,8.75-3,6.54,6.54,0,0,1-4.12-1.38,7.2,7.2,0,0,1-2.46-3.46,7.67,7.67,0,0,0,1.3.17,6.71,6.71,0,0,0,1.9-.26,7.09,7.09,0,0,1-4-2.43,6.69,6.69,0,0,1-1.6-4.41v-.17a7.58,7.58,0,0,0,3.12.95,7,7,0,0,1-3.12-5.89,6.83,6.83,0,0,1,1-3.46,19.21,19.21,0,0,0,14.46,7.27,11,11,0,0,1-.17-1.56,6.95,6.95,0,0,1,7-7,7,7,0,0,1,5.11,2.16,11.52,11.52,0,0,0,4.42-1.64,6.86,6.86,0,0,1-3,3.81,11.48,11.48,0,0,0,4-1A14.79,14.79,0,0,1,38.78,17.81Z"/></svg>